<svg xmlns="http://www.w3.org/2000/svg" width="50" height="50" viewBox="0 0 50 50"><g transform="translate(-814 -1170.5)"><circle cx="25" cy="25" r="25" transform="translate(814 1170.5)" fill="#ff445e"/><path d="M22.219,7.608l-6.8-.984L12.385.49a1,1,0,0,0-1.722,0L7.621,6.624l-6.8.984A.956.956,0,0,0,.289,9.239l4.92,4.777L4.048,20.762A.959.959,0,0,0,5.441,21.77l6.08-3.184L17.6,21.77a.959.959,0,0,0,1.393-1.008l-1.161-6.746,4.92-4.777a.956.956,0,0,0-.532-1.631Z" transform="translate(827 1184.5)" fill="#fff"/></g></svg>