<svg xmlns="http://www.w3.org/2000/svg" width="50" height="50" viewBox="0 0 50 50"><g transform="translate(-819 -1373.5)"><path d="M25,0A25,25,0,1,1,0,25,25,25,0,0,1,25,0Z" transform="translate(819 1373.5)" fill="#4489ff"/><g transform="translate(821 1356.95)"><path d="M157.207,160.452l-1.642-1.551a2.435,2.435,0,1,0-.84.9l1.639,1.551A5.529,5.529,0,0,1,157.207,160.452Z" transform="translate(-137.115 -122.82)" fill="#fff"/><path d="M591.252,37.439l2.185-3.673a2.466,2.466,0,0,0,.672.1,2.436,2.436,0,1,0-1.733-.722L590.2,36.811A5.345,5.345,0,0,1,591.252,37.439Z" transform="translate(-564.215)" fill="#fff"/><path d="M709.93,446.9a2.434,2.434,0,0,0-2.278,1.6l-3.033-.3c0,.022,0,.044,0,.066a5.7,5.7,0,0,1-.121,1.154l3.031.3a2.433,2.433,0,1,0,2.4-2.816Z" transform="translate(-675.366 -406.386)" fill="#fff"/><path d="M509.31,689.962,508.632,687a5.552,5.552,0,0,1-1.2.276l.678,2.962a2.433,2.433,0,1,0,1.2-.275Z" transform="translate(-483.113 -639.871)" fill="#fff"/><path d="M18.249,539l-3.774,1.265a2.429,2.429,0,1,0,.4,1.328,1.625,1.625,0,0,0-.017-.163l3.786-1.267A5.455,5.455,0,0,1,18.249,539Z" transform="translate(0 -495.949)" fill="#fff"/><path d="M355.3,348.877a4.177,4.177,0,1,0,4.177-4.177,4.178,4.178,0,0,0-4.177,4.177Z" transform="translate(-335.787 -307.002)" fill="#fff"/></g></g></svg>