<svg xmlns="http://www.w3.org/2000/svg" width="50" height="50" viewBox="0 0 50 50"><g transform="translate(-824 -1557.5)"><circle cx="25" cy="25" r="25" transform="translate(824 1557.5)" fill="#13e26d"/><g transform="translate(829 1514.897)"><path d="M18.927,73.249l-.836-.836,3.973-3.973.836.836Zm.476-11.7h-5.6v1.183h5.6Zm7.541,1.331a.739.739,0,1,0-.523-.216A.745.745,0,0,0,26.944,62.876Zm-2.661,0a.739.739,0,1,0-.523-.216A.749.749,0,0,0,24.282,62.876Zm-2.661,0a.739.739,0,1,0-.523-.216A.749.749,0,0,0,21.621,62.876ZM31,59.1V77.994H10V59.1Zm-1.479,6.073H11.479V76.517H29.521Zm0-4.592H11.479v3.114H29.521ZM17.26,72.411l-1.539-1.536,1.545-1.545-.836-.836-2.383,2.381,2.374,2.374Zm7.314.838,2.383-2.383L24.58,68.492l-.836.838,1.536,1.536-1.545,1.545Z" fill="#fff"/></g></g></svg>